<?xml version="1.0" encoding="UTF-8" standalone="no"?>
<!-- Created with Inkscape (http://www.inkscape.org/) -->

<svg
   width="31mm"
   height="31mm"
   viewBox="0 0 31 31"
   version="1.1"
   id="svg2042"
   xml:space="preserve"
   xmlns="http://www.w3.org/2000/svg"
   xmlns:svg="http://www.w3.org/2000/svg"><defs
     id="defs2039" /><g
     id="layer1"><circle
       style="fill:#808000;fill-opacity:1;stroke-width:0.264583"
       id="path2162"
       cx="2.1865499"
       cy="2.1139317"
       r="2.02457" /><rect
       style="fill:#808000;fill-opacity:1;stroke-width:0.268319"
       id="rect2166"
       width="2.3863752"
       height="12.007687"
       x="1.0017049"
       y="18.963337" /><rect
       style="fill:#ffffff;fill-opacity:1;stroke:none;stroke-width:0.269528;stroke-opacity:1"
       id="rect3702"
       width="29.526983"
       height="7.5783997"
       x="1.1999186"
       y="8.0382805" /><path
       style="fill:#ff0000;fill-opacity:1;stroke-width:0.264583"
       d="m 1.0292883,4.1384688 v 4.9164221 c 0,0 7.227811,-0.5840869 11.6152227,-0.6274658 3.656111,-0.036149 3.916213,1.6795319 8.013354,1.6392199 5.013395,-0.04933 7.162726,-2.166351 10.199584,-1.7323436 0,-2.1223617 0.03284,-2.7571576 0.03284,-5.4100538 -2.677114,-1.769458 -4.411991,1.5089242 -9.5482,1.570384 C 16.030466,4.5581903 18.501178,2.9348995 13.370832,2.9231224 9.6378055,2.9145529 7.2466961,4.0659018 1.0292883,4.1384688 Z"
       id="path3391" /><path
       style="fill:#ff0000;fill-opacity:1;stroke-width:0.264583"
       d="m 0.97489319,14.352682 v 4.916422 c 0,0 7.22781101,-0.584087 11.61522281,-0.627466 3.656111,-0.03615 3.916213,1.679532 8.013354,1.63922 5.013395,-0.04933 7.162726,-2.166351 10.199584,-1.732344 0,-2.122361 0.03284,-2.757157 0.03284,-5.410053 -2.677114,-1.769458 -4.411991,1.508924 -9.5482,1.570384 -5.311623,0.06356 -2.840911,-1.559732 -7.971257,-1.57151 -3.7330266,-0.0086 -6.124136,1.14278 -12.34154381,1.215347 z"
       id="path3391-7" /><path
       style="fill:none;fill-opacity:1;stroke:#ff2100;stroke-width:0.264583;stroke-opacity:1"
       d="M 1.1653025,9.0278089 1.1107757,14.414174"
       id="path3500" /><path
       style="fill:none;fill-opacity:1;stroke:#ff2100;stroke-width:0.264583;stroke-opacity:1"
       d="m 30.745476,8.1702534 -0.05453,5.3863656"
       id="path3500-7" /></g></svg>
