<?xml version="1.0" encoding="UTF-8" standalone="no"?>
<!-- Created with Inkscape (http://www.inkscape.org/) -->

<svg
   width="221.38675mm"
   height="221.38675mm"
   viewBox="0 0 221.38675 221.38675"
   version="1.1"
   id="svg1"
   xml:space="preserve"
   xmlns="http://www.w3.org/2000/svg"
   xmlns:svg="http://www.w3.org/2000/svg"><defs
     id="defs1" /><g
     id="g299"><rect
       style="fill:#20304a;fill-opacity:1;stroke:none;stroke-width:0.499999;stroke-linecap:round;stroke-linejoin:round"
       id="rect1"
       width="221.38675"
       height="221.38675"
       x="-4.2578126e-06"
       y="1.0473633e-07" /><path
       style="fill:#797879;fill-opacity:1;stroke:none;stroke-width:0.499999;stroke-linecap:round;stroke-linejoin:round"
       d="m 125.69456,78.025018 15.78897,11.027216 1.00248,9.272889 c 0,0 -3.25805,4.511137 -4.76176,4.511137 -1.50371,0 -16.0396,-4.009899 -16.0396,-4.009899 z"
       id="path19" /><circle
       style="fill:#fcf110;fill-opacity:1;stroke:none;stroke-width:0.499999;stroke-linecap:round;stroke-linejoin:round"
       id="path1"
       cx="162.01955"
       cy="41.068287"
       r="25.153885" /><path
       style="fill:#444445;fill-opacity:1;stroke:none;stroke-width:0.499999;stroke-linecap:round;stroke-linejoin:round"
       d="m 55.08165,185.80812 v -35.40086 l 6.91996,-3.99525 0.009,35.82858 z"
       id="path3" /><path
       style="fill:#414141;fill-opacity:1;stroke:none;stroke-width:0.499999;stroke-linecap:round;stroke-linejoin:round"
       d="m 78.82885,114.36471 11.02721,-0.25062 -1.50371,8.0198 -4.51113,3.00742 -5.51361,-1.75433 z"
       id="path20" /><path
       style="fill:#5f5f5f;fill-opacity:1;stroke:none;stroke-width:0.499999;stroke-linecap:round;stroke-linejoin:round"
       d="m 57.84953,131.30219 v -5.8059 h 10.82009 v -3.36479 h 17.87955 v 8.37898 3.29881 L 64.11726,139.8791 62.072,139.6152 v -8.24703 z"
       id="path6" /><path
       style="fill:#020202;fill-opacity:1;stroke:none;stroke-width:0.499999;stroke-linecap:round;stroke-linejoin:round"
       d="m 167.73972,153.60518 h 17.282 l -17.4037,-15.01019 z"
       id="path10" /><path
       style="fill:#3c3b3c;fill-opacity:1;stroke:none;stroke-width:0.499999;stroke-linecap:round;stroke-linejoin:round"
       d="m 128.2128,83.93475 c 0.0243,-0.170344 0,-8.322476 0,-8.322476 l 14.45483,13.384098 v 4.574929 h -4.98862 v -5.30497 h -4.86695 v -4.307247 z"
       id="path11" /><path
       style="fill:#000000;fill-opacity:1;stroke:none;stroke-width:0.499999;stroke-linecap:round;stroke-linejoin:round"
       d="m 54.22406,125.52942 c 0.193,-0.0482 14.57118,0.0482 14.57118,0.0482 l 12.20699,-3.28093 v -6.32061 h 5.50038 V 98.558263 h -5.83813 v 12.641227 h -7.04434 v -6.75486 h -5.93462 v 13.02722 h -7.43034 v -5.83812 h -6.07937 z"
       id="path13" /><path
       style="fill:#c0bdb2;fill-opacity:1;stroke:none;stroke-width:0.499999;stroke-linecap:round;stroke-linejoin:round"
       d="m 112.98818,48.262544 -0.36277,66.264796 15.59887,-7.01343 V 93.607975 49.834519 Z"
       id="path18" /><path
       style="fill:#b9b9b9;fill-opacity:1;stroke:none;stroke-width:0.499999;stroke-linecap:round;stroke-linejoin:round"
       d="m 85.79117,190.01916 31.00055,-2.58338 -1.69256,-77.8577 -0.80174,-0.80174 V 84.189697 H 86.32566 v 60.932123 z"
       id="path16" /><path
       style="fill:#7c7c7c;fill-opacity:1;stroke:none;stroke-width:0.499999;stroke-linecap:round;stroke-linejoin:round"
       d="m 114.50346,187.27 v -78.63644 h 53.34407 v 44.69861 h 13.24402 v 67.13988 l -65.39244,-21.24563 z"
       id="path15" /><path
       style="fill:#7c7c7c;fill-opacity:1;stroke:none;stroke-width:0.499999;stroke-linecap:round;stroke-linejoin:round"
       d="M 86.525,191.09903 V 155.002 h 6.38714 c 0,0 0.19355,-4.64519 0,-4.64519 -0.19355,0 -6.48392,0 -6.48392,0 v -2.80647 h 6.1936 v -4.6452 H 86.525 v -6.96779 h 6.00004 v -4.83874 h -6.19359 v -1.25807 H 67.6539 v 6.29036 h -5.61295 v 46.25839 l 18.77433,17.3227 z"
       id="path5" /><path
       style="fill:#b9b9b9;fill-opacity:1;stroke:none;stroke-width:0.499999;stroke-linecap:round;stroke-linejoin:round"
       d="m 128.34967,179.60028 -0.13054,-23.02152 h 6.48431 v -7.09359 h 6.70193 v 7.09359 h 6.74543 v 38.34019 l -18.27796,-8.92138 z"
       id="path4" /><path
       style="fill:#7c7c7c;fill-opacity:1;stroke:none;stroke-width:0.499999;stroke-linecap:round;stroke-linejoin:round"
       d="m 96.25863,181.83888 v -19.15937 c 0,0 0.4178,-5.37179 5.61053,-5.37179 5.19273,0 5.37179,5.13304 5.37179,5.13304 v 25.30709 z"
       id="path24" /><path
       style="fill:#383838;fill-opacity:1;stroke:none;stroke-width:0.499999;stroke-linecap:round;stroke-linejoin:round"
       d="m 21.64252,221.34856 20.32503,-25.47541 9.34671,-7.99212 15.23921,-8.26304 13.95235,14.7651 18.49024,-15.37466 14.93427,7.39078 18.8668,-8.81816 14.86783,16.40588 h 10.56128 l 8.40801,14.15007 5.84458,2.25581 11.17651,10.97142 z"
       id="path2" /><path
       style="fill:#000000;fill-opacity:1;stroke:none;stroke-width:0.499999;stroke-linecap:round;stroke-linejoin:round"
       d="m 117.63475,108.82973 v -4.4352 h 4.85102 v -5.828645 h 4.19971 v -5.053573 h 8.21205 v 4.762021 h 6.31696 v -4.713428 h 6.7057 v 4.810612 h 6.7543 v -4.907796 h 6.17118 v 5.00498 h 6.8029 v -5.102164 h 5.87964 V 108.8188 Z"
       id="path14" /><path
       style="fill:#7c7c7c;fill-opacity:1;stroke:none;stroke-width:0.499999;stroke-linecap:round;stroke-linejoin:round"
       d="m 86.50734,91.069581 h 8.29626 v 4.164787 h 13.16073 v -4.164787 h 6.26384 V 85.57206 H 86.4407 Z"
       id="path12" /><path
       style="fill:#7a7a7a;fill-opacity:1;stroke:none;stroke-width:0.499999;stroke-linecap:round;stroke-linejoin:round"
       d="m 100.41238,52.0111 v 15.115143 l 12.93856,12.333958 V 50.197282 Z"
       id="path17" /><path
       style="fill:#383839;fill-opacity:1;stroke:none;stroke-width:0.499999;stroke-linecap:round;stroke-linejoin:round"
       d="m 113.04942,52.055015 18.20321,-0.08773 -16.36096,-41.933068 -0.26318,0.08773 z"
       id="path9" /><path
       style="fill:#000000;fill-opacity:1;stroke:none;stroke-width:0.499999;stroke-linecap:round;stroke-linejoin:round"
       d="m 100.41687,52.186604 c 0,-0.219315 14.25549,-41.97693 14.25549,-41.97693 l -1.57907,42.020793 z"
       id="path8" /><path
       style="fill:#000000;fill-opacity:1;stroke:none;stroke-width:0.499999;stroke-linecap:round;stroke-linejoin:round"
       d="m 79.62579,86.224324 20.83494,-23.291275 20.70338,23.247413 z"
       id="path7" /><path
       style="fill:#3a383d;fill-opacity:1;stroke:none;stroke-width:0.499999;stroke-linecap:round;stroke-linejoin:round"
       d="m 123.71976,129.09126 h 6.15591 v -9.89343 c 0,0 -2.93139,-5.05664 -6.30248,0 0,8.50229 0.14657,9.89343 0.14657,9.89343 z"
       id="path21" /><path
       style="fill:#3a383d;fill-opacity:1;stroke:none;stroke-width:0.499999;stroke-linecap:round;stroke-linejoin:round"
       d="m 138.28649,129.10711 h 6.15591 v -9.89343 c 0,0 -2.93139,-5.05664 -6.30248,0 0,8.50228 0.14657,9.89343 0.14657,9.89343 z"
       id="path21-2" /><path
       style="fill:#3a383d;fill-opacity:1;stroke:none;stroke-width:0.499999;stroke-linecap:round;stroke-linejoin:round"
       d="m 153.1317,129.06996 h 6.15591 v -9.89342 c 0,0 -2.93139,-5.05665 -6.30248,0 0,8.50228 0.14657,9.89342 0.14657,9.89342 z"
       id="path21-0" /><rect
       style="fill:#3a383d;fill-opacity:1;stroke:none;stroke-width:0.499999;stroke-linecap:round;stroke-linejoin:round"
       id="rect21"
       width="6.8586297"
       height="11.038107"
       x="167.98111"
       y="158.78664" /><path
       style="fill:#7c7c7a;fill-opacity:1;stroke:none;stroke-width:0.499999;stroke-linecap:round;stroke-linejoin:round"
       d="m 117.87092,65.725509 h 5.6572 v -5.995371 c 0,0 -1.16834,-2.398149 -2.76712,-2.398149 -1.59877,0 -2.82859,2.213676 -2.82859,2.213676 z"
       id="path22" /><path
       style="fill:#c1bdb6;fill-opacity:1;stroke:none;stroke-width:0.499999;stroke-linecap:round;stroke-linejoin:round"
       d="m 118.15776,47.365178 h 5.20683 v -8.598395 l -2.62731,-2.961669 -2.53176,2.961669 z"
       id="path23" /><rect
       style="fill:#7e7e7e;fill-opacity:1;stroke:none;stroke-width:0.499999;stroke-linecap:round;stroke-linejoin:round"
       id="rect23-6"
       width="6.3718972"
       height="5.009922"
       x="86.236427"
       y="123.72411" /><rect
       style="fill:#7e7e7e;fill-opacity:1;stroke:none;stroke-width:0.499999;stroke-linecap:round;stroke-linejoin:round"
       id="rect23-7"
       width="6.420157"
       height="5.009922"
       x="86.323189"
       y="110.97105" /><rect
       style="fill:#7e7e7e;fill-opacity:1;stroke:none;stroke-width:0.499999;stroke-linecap:round;stroke-linejoin:round"
       id="rect23-3"
       width="6.4684172"
       height="5.009922"
       x="86.34478"
       y="104.25319" /><rect
       style="fill:#37343b;fill-opacity:1;stroke:none;stroke-width:0.499999;stroke-linecap:round;stroke-linejoin:round"
       id="rect24"
       width="5.7273617"
       height="11.878971"
       x="68.259026"
       y="142.54028" /><rect
       style="fill:#37343b;fill-opacity:1;stroke:none;stroke-width:0.499999;stroke-linecap:round;stroke-linejoin:round"
       id="rect24-2"
       width="5.7273617"
       height="8.7507572"
       x="68.264763"
       y="159.5676" /></g></svg>
